<svg xmlns:xlink="http://www.w3.org/1999/xlink" version="1.1" class="highcharts-root" style="font-family: &quot;Lucida Grande&quot;, &quot;Lucida Sans Unicode&quot;, Arial, Helvetica, sans-serif; font-size: 12px;" xmlns="http://www.w3.org/2000/svg" width="600" height="410" viewBox="0 0 600 410"><desc>Created with Highcharts 10.1.0</desc><defs><clipPath id="highcharts-wg5123f-58-"><rect x="0" y="0" width="543" height="295" fill="none"></rect></clipPath><clipPath id="highcharts-wg5123f-71-"><rect x="0" y="0" width="543" height="295" fill="none"></rect></clipPath><linearGradient x1="0" y1="0" x2="0" y2="1" id="highcharts-wg5123f-72"><stop offset="0" stop-color="#4f81bd" stop-opacity="1"></stop><stop offset="1" stop-color="rgb(79,129,189)" stop-opacity="0"></stop></linearGradient><clipPath id="highcharts-wg5123f-73-"><rect x="25" y="40" width="543" height="295" fill="none"></rect></clipPath></defs><rect fill="#ffffff" class="highcharts-background" x="0" y="0" width="600" height="410" rx="0" ry="0"></rect><rect fill="none" class="highcharts-plot-background" x="25" y="40" width="543" height="295"></rect><g class="highcharts-grid highcharts-xaxis-grid" data-z-index="1"><path fill="none" stroke="#E7E7E7" stroke-width="1" stroke-dasharray="1,1" data-z-index="1" class="highcharts-grid-line" d="M 24.5 40 L 24.5 335" opacity="1"></path><path fill="none" stroke="#E7E7E7" stroke-width="1" stroke-dasharray="1,1" data-z-index="1" class="highcharts-grid-line" d="M 123.5 40 L 123.5 335" opacity="1"></path><path fill="none" stroke="#E7E7E7" stroke-width="1" stroke-dasharray="1,1" data-z-index="1" class="highcharts-grid-line" d="M 221.5 40 L 221.5 335" opacity="1"></path><path fill="none" stroke="#E7E7E7" stroke-width="1" stroke-dasharray="1,1" data-z-index="1" class="highcharts-grid-line" d="M 320.5 40 L 320.5 335" opacity="1"></path><path fill="none" stroke="#E7E7E7" stroke-width="1" stroke-dasharray="1,1" data-z-index="1" class="highcharts-grid-line" d="M 419.5 40 L 419.5 335" opacity="1"></path><path fill="none" stroke="#E7E7E7" stroke-width="1" stroke-dasharray="1,1" data-z-index="1" class="highcharts-grid-line" d="M 518.5 40 L 518.5 335" opacity="1"></path></g><g class="highcharts-grid highcharts-yaxis-grid" data-z-index="1"><path fill="none" stroke="#E7E7E7" stroke-width="1" stroke-dasharray="1,1" data-z-index="1" class="highcharts-grid-line" d="M 25 335.5 L 568 335.5" opacity="1"></path><path fill="none" stroke="#E7E7E7" stroke-width="1" stroke-dasharray="1,1" data-z-index="1" class="highcharts-grid-line" d="M 25 298.5 L 568 298.5" opacity="1"></path><path fill="none" stroke="#E7E7E7" stroke-width="1" stroke-dasharray="1,1" data-z-index="1" class="highcharts-grid-line" d="M 25 243.5 L 568 243.5" opacity="1"></path><path fill="none" stroke="#E7E7E7" stroke-width="1" stroke-dasharray="1,1" data-z-index="1" class="highcharts-grid-line" d="M 25 188.5 L 568 188.5" opacity="1"></path><path fill="none" stroke="#E7E7E7" stroke-width="1" stroke-dasharray="1,1" data-z-index="1" class="highcharts-grid-line" d="M 25 132.5 L 568 132.5" opacity="1"></path><path fill="none" stroke="#E7E7E7" stroke-width="1" stroke-dasharray="1,1" data-z-index="1" class="highcharts-grid-line" d="M 25 77.5 L 568 77.5" opacity="1"></path><path fill="none" stroke="#E7E7E7" stroke-width="1" stroke-dasharray="1,1" data-z-index="1" class="highcharts-grid-line" d="M 25 39.5 L 568 39.5" opacity="1"></path></g><rect fill="none" class="highcharts-plot-border" data-z-index="1" x="25" y="40" width="543" height="295"></rect><g class="highcharts-grid highcharts-yaxis-grid" data-z-index="1"></g><g class="highcharts-axis highcharts-xaxis" data-z-index="2"><path fill="none" class="highcharts-axis-line" stroke="#E6E6E6" stroke-width="1" data-z-index="7" d="M 25 335.5 L 568 335.5"></path></g><g class="highcharts-axis highcharts-yaxis" data-z-index="2"><path fill="none" class="highcharts-tick" stroke="#E7E7E7" stroke-width="0.5" d="M 568 335.25 L 578 335.25" opacity="1"></path><path fill="none" class="highcharts-tick" stroke="#E7E7E7" stroke-width="0.5" d="M 568 298.25 L 578 298.25" opacity="1"></path><path fill="none" class="highcharts-tick" stroke="#E7E7E7" stroke-width="0.5" d="M 568 243.25 L 578 243.25" opacity="1"></path><path fill="none" class="highcharts-tick" stroke="#E7E7E7" stroke-width="0.5" d="M 568 188.25 L 578 188.25" opacity="1"></path><path fill="none" class="highcharts-tick" stroke="#E7E7E7" stroke-width="0.5" d="M 568 132.25 L 578 132.25" opacity="1"></path><path fill="none" class="highcharts-tick" stroke="#E7E7E7" stroke-width="0.5" d="M 568 77.25 L 578 77.25" opacity="1"></path><path fill="none" class="highcharts-tick" stroke="#E7E7E7" stroke-width="0.5" d="M 568 39.75 L 578 39.75" opacity="1"></path><path fill="none" class="highcharts-axis-line" stroke="#E6E6E6" stroke-width="1" data-z-index="7" d="M 568.5 40 L 568.5 335"></path></g><g class="highcharts-axis highcharts-yaxis" data-z-index="2"><path fill="none" class="highcharts-axis-line" stroke="#E6E6E6" stroke-width="1" data-z-index="7" d="M 24.5 40 L 24.5 335"></path></g><g class="highcharts-series-group" data-z-index="3"><g class="highcharts-series highcharts-series-0 highcharts-areaspline-series" data-z-index="4" opacity="1" transform="translate(25,40) scale(1 1)" clip-path="url(#highcharts-wg5123f-71-)"><path fill="url(#highcharts-wg5123f-72)" d="M 0 221.25 C 0 221.25 29.618181818181 184.37499999999815 49.363636363635 147.5 C 69.109090909091 110.62499999999815 78.981818181819 36.875 98.727272727275 36.875 C 118.47272727272897 36.875 128.345454545456 129.0625 148.09090909091 129.0625 C 167.836363636366 129.0625 177.709090909094 110.625 197.45454545455 110.625 C 217.200000000002 110.625 227.07272727272803 165.9375 246.81818181818 165.9375 C 266.563636363636 165.9375 276.436363636364 18.4375 296.18181818182 18.4375 C 315.927272727272 18.4375 325.799999999998 165.9375 345.54545454545 202.8125 C 365.290909090906 239.6875 375.16363636363405 239.6875 394.90909090909 239.6875 C 414.65454545454594 239.6875 424.52727272727395 165.9375 444.27272727273 165.9375 C 464.018181818182 165.9375 473.890909090908 258.125 493.63636363636 258.125 C 513.381818181816 258.125 543 221.25 543 221.25 L 543 295 C 543 295 513.381818181816 295 493.63636363636 295 C 473.890909090908 295 464.018181818182 295 444.27272727273 295 C 424.52727272727395 295 414.65454545454594 295 394.90909090909 295 C 375.16363636363405 295 365.290909090906 295 345.54545454545 295 C 325.799999999998 295 315.927272727272 295 296.18181818182 295 C 276.436363636364 295 266.563636363636 295 246.81818181818 295 C 227.07272727272803 295 217.200000000002 295 197.45454545455 295 C 177.709090909094 295 167.836363636366 295 148.09090909091 295 C 128.345454545456 295 118.47272727272897 295 98.727272727275 295 C 78.981818181819 295 69.109090909091 295 49.363636363635 295 C 29.618181818181 295 0 295 0 295 Z" class="highcharts-area" data-z-index="0"></path><path fill="none" d="M 0 221.25 C 0 221.25 29.618181818181 184.37499999999815 49.363636363635 147.5 C 69.109090909091 110.62499999999815 78.981818181819 36.875 98.727272727275 36.875 C 118.47272727272897 36.875 128.345454545456 129.0625 148.09090909091 129.0625 C 167.836363636366 129.0625 177.709090909094 110.625 197.45454545455 110.625 C 217.200000000002 110.625 227.07272727272803 165.9375 246.81818181818 165.9375 C 266.563636363636 165.9375 276.436363636364 18.4375 296.18181818182 18.4375 C 315.927272727272 18.4375 325.799999999998 165.9375 345.54545454545 202.8125 C 365.290909090906 239.6875 375.16363636363405 239.6875 394.90909090909 239.6875 C 414.65454545454594 239.6875 424.52727272727395 165.9375 444.27272727273 165.9375 C 464.018181818182 165.9375 473.890909090908 258.125 493.63636363636 258.125 C 513.381818181816 258.125 543 221.25 543 221.25" class="highcharts-graph" data-z-index="1" stroke="#4f81bd" stroke-width="2" stroke-linejoin="round" stroke-linecap="round"></path></g><g class="highcharts-markers highcharts-series-0 highcharts-areaspline-series" data-z-index="4" opacity="1" transform="translate(25,40) scale(1 1)" clip-path="none"></g></g><text x="24" text-anchor="start" class="highcharts-title" data-z-index="4" style="color: rgb(51, 51, 51); font-size: 1em; fill: rgb(51, 51, 51); font-family: Helvetica;" y="20">UZ Business Confidence<tspan style="font-size: 10px;"> - points</tspan></text><text x="590" text-anchor="end" class="highcharts-subtitle" data-z-index="4" style="color: rgb(51, 51, 51); fill: rgb(51, 51, 51); font-size: 0.8em; font-family: Helvetica;" y="401">Source: tradingeconomics.com | Center for Economic Research and Reforms (CERR)</text><text x="10" text-anchor="start" class="highcharts-caption" data-z-index="4" style="color: rgb(102, 102, 102); fill: rgb(102, 102, 102);" y="407"></text><g class="highcharts-axis-labels highcharts-xaxis-labels" data-z-index="7"><text x="25" text-anchor="middle" transform="translate(0,0)" style="color: rgb(51, 51, 51); cursor: default; font-size: 1em; font-family: Helvetica; fill: rgb(51, 51, 51);" y="350" opacity="1">2023</text><text x="123.72727272727" text-anchor="middle" transform="translate(0,0)" style="color: rgb(51, 51, 51); cursor: default; font-size: 1em; font-family: Helvetica; fill: rgb(51, 51, 51);" y="350" opacity="1">Mar</text><text x="222.45454545455" text-anchor="middle" transform="translate(0,0)" style="color: rgb(51, 51, 51); cursor: default; font-size: 1em; font-family: Helvetica; fill: rgb(51, 51, 51);" y="350" opacity="1">May</text><text x="321.18181818182" text-anchor="middle" transform="translate(0,0)" style="color: rgb(51, 51, 51); cursor: default; font-size: 1em; font-family: Helvetica; fill: rgb(51, 51, 51);" y="350" opacity="1">Jul</text><text x="419.90909090909" text-anchor="middle" transform="translate(0,0)" style="color: rgb(51, 51, 51); cursor: default; font-size: 1em; font-family: Helvetica; fill: rgb(51, 51, 51);" y="350" opacity="1">Sep</text><text x="518.63636363636" text-anchor="middle" transform="translate(0,0)" style="color: rgb(51, 51, 51); cursor: default; font-size: 1em; font-family: Helvetica; fill: rgb(51, 51, 51);" y="350" opacity="1">Nov</text></g><g class="highcharts-axis-labels highcharts-yaxis-labels" data-z-index="7"><text x="0" text-anchor="start" transform="translate(0,0)" style="color: rgb(51, 51, 51); cursor: default; font-size: 1em; font-family: Helvetica; fill: rgb(51, 51, 51);" visibility="hidden"><tspan class="yLabels_">50</tspan></text><text x="573" text-anchor="start" transform="translate(0,0)" style="color: rgb(51, 51, 51); cursor: default; font-size: 1em; font-family: Helvetica; fill: rgb(51, 51, 51);" y="301" opacity="1"><tspan class="yLabels_">52</tspan></text><text x="573" text-anchor="start" transform="translate(0,0)" style="color: rgb(51, 51, 51); cursor: default; font-size: 1em; font-family: Helvetica; fill: rgb(51, 51, 51);" y="246" opacity="1"><tspan class="yLabels_">55</tspan></text><text x="573" text-anchor="start" transform="translate(0,0)" style="color: rgb(51, 51, 51); cursor: default; font-size: 1em; font-family: Helvetica; fill: rgb(51, 51, 51);" y="191" opacity="1"><tspan class="yLabels_">58</tspan></text><text x="573" text-anchor="start" transform="translate(0,0)" style="color: rgb(51, 51, 51); cursor: default; font-size: 1em; font-family: Helvetica; fill: rgb(51, 51, 51);" y="135" opacity="1"><tspan class="yLabels_">61</tspan></text><text x="573" text-anchor="start" transform="translate(0,0)" style="color: rgb(51, 51, 51); cursor: default; font-size: 1em; font-family: Helvetica; fill: rgb(51, 51, 51);" y="80" opacity="1"><tspan class="yLabels_">64</tspan></text><text x="0" text-anchor="start" transform="translate(0,0)" style="color: rgb(51, 51, 51); cursor: default; font-size: 1em; font-family: Helvetica; fill: rgb(51, 51, 51);" visibility="hidden"><tspan class="yLabels_">66</tspan></text></g><g class="highcharts-axis-labels highcharts-yaxis-labels" data-z-index="7"></g><g class="highcharts-control-points" data-z-index="99" clip-path="url(#highcharts-wg5123f-73-)"></g></svg>